<?xml version="1.0" standalone="no"?>
<!DOCTYPE svg PUBLIC "-//W3C//DTD SVG 20010904//EN"
 "http://www.w3.org/TR/2001/REC-SVG-20010904/DTD/svg10.dtd">
<svg version="1.0" xmlns="http://www.w3.org/2000/svg"
 width="200.000000pt" height="200.000000pt" viewBox="0 0 200.000000 200.000000"
 preserveAspectRatio="xMidYMid meet">
<metadata>
Created by potrace 1.11, written by Peter Selinger 2001-2013
</metadata>
<g transform="translate(0.000000,200.000000) scale(0.100000,-0.100000)"
fill="#000000" stroke="none">
<path d="M937 1804 c-1 -1 -22 -5 -47 -9 -98 -13 -280 -83 -280 -106 0 -5 -6
-9 -13 -9 -19 0 -145 -123 -195 -190 -43 -59 -94 -156 -107 -205 -57 -213 -28
-417 83 -584 34 -51 131 -156 177 -191 57 -44 220 -120 256 -120 19 0 56 -46
46 -57 -15 -14 -276 67 -285 89 -2 4 -9 8 -15 8 -18 0 -125 72 -177 119 -25
22 -47 41 -50 41 -3 0 -4 19 -2 42 4 39 2 44 -57 100 -65 61 -108 77 -96 36
12 -39 66 -141 103 -193 43 -59 181 -195 199 -195 7 0 13 -4 13 -10 0 -26 218
-122 308 -136 20 -3 49 -14 64 -25 34 -24 152 -27 177 -5 9 8 36 17 61 21 82
11 94 14 160 36 57 18 128 52 179 84 77 49 105 71 163 131 79 82 108 118 153
199 42 74 65 136 71 193 5 55 -14 56 -65 4 -58 -59 -76 -94 -64 -128 13 -36
-8 -69 -100 -162 -133 -135 -300 -219 -495 -248 l-44 -6 17 26 c10 14 24 26
31 26 21 0 19 0 76 16 248 72 453 289 494 524 1 8 5 29 9 45 15 68 11 197 -9
286 -26 113 -108 260 -201 355 -76 79 -222 154 -349 180 -70 14 -182 25 -189
18z m182 -134 c137 -42 244 -128 300 -243 44 -90 54 -133 56 -222 5 -249 -176
-453 -331 -372 -29 15 -81 65 -76 73 2 2 0 19 -3 38 -9 43 13 140 37 168 22
26 22 30 1 55 -54 61 -159 64 -223 6 -35 -31 -37 -46 -10 -80 50 -64 49 -190
-3 -255 -17 -21 -84 -46 -111 -42 -53 8 -73 19 -117 64 -64 65 -114 168 -125
255 -7 48 -6 133 0 174 7 42 11 52 34 98 7 13 12 28 12 34 0 17 49 80 106 136
54 52 160 113 198 113 12 0 27 4 35 9 23 15 162 9 220 -9z"/>
</g>
</svg>
